<?xml version="1.0" standalone="no"?>
<!DOCTYPE svg PUBLIC "-//W3C//DTD SVG 20010904//EN"
 "http://www.w3.org/TR/2001/REC-SVG-20010904/DTD/svg10.dtd">
<svg version="1.0" xmlns="http://www.w3.org/2000/svg"
 width="926.000000pt" height="980.000000pt" viewBox="0 0 926.000000 980.000000"
 preserveAspectRatio="xMidYMid meet">

<g transform="translate(0.000000,980.000000) scale(0.100000,-0.100000)"
fill="#000000" stroke="none">
<path d="M4275 9790 c-229 -16 -605 -67 -636 -86 -4 -2 -12 -26 -17 -52 -13
-60 -131 -805 -176 -1111 -19 -128 -36 -235 -38 -236 -2 -2 -124 -63 -273
-137 -269 -135 -432 -226 -555 -312 -196 -137 -273 -186 -292 -186 -11 0 -118
36 -236 81 -199 74 -366 139 -871 339 l-183 72 -70 -68 c-135 -133 -300 -363
-485 -674 -288 -486 -458 -860 -432 -953 21 -76 145 -189 677 -615 l352 -283
0 -592 c0 -325 3 -628 6 -672 l6 -80 -435 -338 c-465 -360 -555 -438 -587
-508 -40 -89 -22 -159 120 -460 110 -233 175 -356 292 -553 185 -309 360 -549
491 -674 l66 -62 48 19 c26 10 152 60 278 111 304 121 724 283 856 330 l107
39 38 -21 c47 -25 74 -43 185 -125 142 -104 338 -217 627 -360 211 -105 273
-140 277 -157 3 -11 30 -190 60 -396 72 -489 91 -607 125 -770 34 -161 42
-185 72 -204 89 -56 640 -103 1093 -93 254 6 423 21 640 57 154 25 192 36 205
60 29 54 143 702 236 1338 5 31 12 36 247 151 249 122 401 210 637 367 165
111 240 153 260 147 84 -28 449 -168 818 -315 l453 -180 68 73 c266 289 499
644 726 1104 236 480 242 524 95 670 -33 33 -255 213 -493 400 l-432 341 -2
679 -3 680 267 210 c470 371 681 552 739 636 20 29 28 52 27 78 -5 116 -224
573 -466 971 -183 299 -328 498 -455 624 l-70 68 -323 -127 c-341 -134 -788
-306 -901 -346 -82 -29 -80 -30 -261 101 -175 126 -321 212 -597 354 -129 67
-252 134 -272 149 -20 16 -46 47 -57 70 -14 30 -48 224 -120 686 -56 355 -105
649 -109 653 -10 10 -363 62 -532 78 -154 15 -653 21 -815 10z m666 -3459
c288 -62 497 -178 720 -400 141 -141 238 -277 319 -445 79 -165 99 -282 100
-586 0 -310 -22 -434 -107 -605 -166 -332 -425 -590 -749 -746 -171 -82 -217
-91 -526 -96 -405 -8 -494 8 -718 123 -178 92 -349 233 -490 402 -142 169
-212 290 -255 438 -74 256 -74 713 1 970 42 148 138 301 307 494 238 271 502
413 867 466 135 19 405 11 531 -15z"/>
</g>
</svg>
