<?xml version="1.0" standalone="no"?>
<!DOCTYPE svg PUBLIC "-//W3C//DTD SVG 20010904//EN"
 "http://www.w3.org/TR/2001/REC-SVG-20010904/DTD/svg10.dtd">
<svg version="1.0" xmlns="http://www.w3.org/2000/svg"
 width="512.000000pt" height="512.000000pt" viewBox="0 0 512.000000 512.000000"
 preserveAspectRatio="xMidYMid meet">

<g transform="translate(0.000000,512.000000) scale(0.100000,-0.100000)"
fill="#000000" stroke="none">
<path d="M2350 4794 c-474 -56 -878 -227 -1230 -522 -272 -227 -528 -580 -621
-853 -83 -248 142 -498 393 -434 109 27 190 97 233 200 76 182 176 328 334
486 225 224 481 365 784 431 139 30 493 33 632 5 197 -40 417 -130 572 -234
74 -49 223 -171 223 -182 0 -4 -146 -150 -325 -325 -179 -175 -325 -321 -325
-324 0 -4 401 -7 890 -7 l890 -1 0 885 0 886 -328 -328 -328 -328 -80 72
c-257 234 -580 412 -914 503 -188 51 -319 68 -550 71 -118 2 -231 1 -250 -1z"/>
<path d="M4232 2135 c-70 -20 -87 -29 -145 -84 -36 -34 -61 -70 -92 -136 -219
-470 -635 -799 -1140 -902 -140 -28 -483 -25 -625 6 -280 60 -535 186 -710
350 l-65 61 330 324 330 325 -897 1 -898 0 0 -882 0 -883 329 329 330 330 53
-50 c223 -210 530 -393 821 -489 265 -87 505 -121 786 -112 332 11 605 79 907
227 237 116 428 255 620 451 174 179 297 354 419 599 51 100 59 124 63 186 5
87 -14 158 -62 224 -78 108 -227 160 -354 125z"/>
</g>
</svg>
